Patient4_TMGait_0pt6_01_left_08_GRF.mot
version=1
nRows=32
nColumns=19
inDegrees=no
endheader
time	F1x	F1y	F1z	M1x	M1y	M1z	F2x	F2y	F2z	M2x	M2y	M2z	EC1x	EC1y	EC1z	EC2x	EC2y	EC2z
9.68	8.5338	0.68855	0.92841	-0.7451	0.84525	1.3221	-49.5603	735.8886	-75.0536	279.5381	89.9266	714.7301	-0.0592	0.0182	-0.0073	-0.0462	0.0165	0.9585
9.6925	5.5726	1.2013	0.68039	-0.77646	0.40309	1.6373	-47.7202	739.425	-69.4729	279.653	84.1738	715.17	-0.0592	0.0182	-0.0073	-0.0462	0.0165	0.9585
9.705	3.0942	1.6696	0.45368	-0.81567	0.077453	1.9321	-46.2224	744.6692	-64.4837	280.5858	79.0187	716.6773	-0.0592	0.0182	-0.0073	-0.0462	0.0165	0.9585
9.7175	1.2307	2.0669	0.27398	-0.85879	-0.14317	2.1882	-45.0078	751.5061	-60.3526	282.3733	74.6774	719.1775	-0.0592	0.0182	-0.0073	-0.0462	0.0165	0.9585
9.73	-0.051925	2.379	0.1396	-0.90112	-0.27489	2.3962	-43.8979	759.4912	-57.1251	284.8662	71.1294	722.2935	-0.0592	0.0182	-0.0073	-0.0462	0.0165	0.9585
9.7425	-0.84518	2.593	0.058131	-0.93567	-0.35003	2.5368	-42.6506	767.8874	-54.7039	287.7671	68.207	725.3712	-0.0592	0.0182	-0.0073	-0.0462	0.0165	0.9585
9.755	-1.2849	2.7024	0.017345	-0.95409	-0.39242	2.6017	-41.0235	775.7818	-52.9404	290.6907	65.695	727.5991	-0.0592	0.0182	-0.0073	-0.0462	0.0165	0.9585
9.7675	-1.4861	2.6801	0.013696	-0.94017	-0.42937	2.5529	-38.8251	782.2162	-51.6528	293.2271	63.3584	728.1397	-0.0592	0.0182	-0.0073	-0.0462	0.0165	0.9585
9.78	-1.5699	2.4945	0.031525	-0.87469	-0.47618	2.3547	-35.9315	786.3241	-50.6786	295.0014	61.0051	726.2609	-0.0592	0.0182	-0.0073	-0.0462	0.0165	0.9585
9.7925	-1.6016	2.0932	0.060638	-0.73332	-0.53663	1.9321	-32.3275	787.4747	-49.8635	295.7302	58.486	721.4698	-0.0592	0.0182	-0.0073	-0.0462	0.0165	0.9585
9.805	-1.6429	1.4215	0.091755	-0.48823	-0.61092	1.22	-28.0565	785.3268	-49.1254	295.2489	55.7418	713.5417	-0.0592	0.0182	-0.0073	-0.0462	0.0165	0.9585
9.8175	-1.6979	0.41697	0.11193	-0.1127	-0.68243	0.14588	-23.2459	779.9221	-48.4283	293.5458	52.788	702.6193	-0.0592	0.0182	-0.0073	-0.0462	0.0165	0.9585
9.83	-1.7468	-0.96306	0.11188	0.40952	-0.72765	-1.3269	-18.0684	771.6565	-47.7956	290.7533	49.7146	689.1589	-0.0592	0.0182	-0.0073	-0.0462	0.0165	0.9585
9.8425	-1.7236	-2.7021	0.079529	1.0703	-0.70806	-3.1798	-12.7196	761.2053	-47.2884	287.114	46.6587	673.8642	-0.0592	0.0182	-0.0073	-0.0462	0.0165	0.9585
9.855	-1.5318	-4.6724	0.010912	1.8192	-0.57908	-5.2732	-7.3836	749.4652	-46.9923	282.959	43.7794	657.6137	-0.0592	0.0182	-0.0073	-0.0462	0.0165	0.9585
9.8675	-1.0379	-6.5694	-0.10672	2.5381	-0.27624	-7.2809	-2.2006	737.4618	-47.0237	278.6699	41.2444	641.371	-0.0592	0.0182	-0.0073	-0.0462	0.0165	0.9585
9.88	-0.079733	-7.8571	-0.27593	3.0199	0.26503	-8.6408	2.7358	726.1931	-47.4996	274.6192	39.2019	626.0503	-0.0592	0.0182	-0.0073	-0.0462	0.0165	0.9585
9.8925	1.5038	-7.6816	-0.51224	2.9421	1.1183	-8.4606	7.3778	716.4432	-48.5064	271.1023	37.7554	612.3543	-0.0592	0.0182	-0.0073	-0.0462	0.0165	0.9585
9.905	3.8573	-4.8372	-0.80995	1.8479	2.3286	-5.4889	11.7051	708.6746	-50.0376	268.296	36.916	600.6935	-0.0592	0.0182	-0.0073	-0.0462	0.0165	0.9585
9.9175	7.0313	2.2244	-1.1497	-0.85248	3.8891	1.9028	15.701	702.9407	-51.9955	266.2222	36.6139	591.1302	-0.0592	0.0182	-0.0073	-0.0462	0.0165	0.9585
9.93	10.9106	15.2738	-1.4694	-5.8359	5.6855	15.5749	19.3253	698.7877	-54.2011	264.7059	36.7153	583.3198	-0.0592	0.0182	-0.0073	-0.0462	0.0165	0.9585
9.9425	15.0758	36.0493	-1.6698	-13.7647	7.449	37.3626	22.5129	695.2413	-56.4161	263.3691	37.0428	576.5124	-0.0592	0.0182	-0.0073	-0.0462	0.0165	0.9585
9.955	18.6902	65.7494	-1.5941	-25.0949	8.6935	68.5272	25.1581	690.8845	-58.3724	261.6629	37.4102	569.6178	-0.0592	0.0182	-0.0073	-0.0462	0.0165	0.9585
9.9675	20.4219	104.3615	-1.0345	-39.8167	8.697	109.0795	27.1266	684.0442	-59.7826	258.9439	37.6312	561.3479	-0.0592	0.0182	-0.0073	-0.0462	0.0165	0.9585
9.98	18.752	149.975	0.2491	-57.1931	6.6428	157.0333	28.2987	673.1046	-60.3708	254.6023	37.5293	550.4346	-0.0592	0.0182	-0.0073	-0.0462	0.0165	0.9585
9.9925	13.1208	198.6197	2.5315	-75.6932	2.0461	208.2094	28.6344	656.9041	-59.8954	248.2171	36.9286	535.9156	-0.0592	0.0182	-0.0073	-0.0462	0.0165	0.9585
10.005	5.0361	245.0938	6.251	-93.3049	-4.958	257.0451	28.2546	635.0177	-58.2355	239.6624	35.6952	517.3454	-0.0592	0.0182	-0.0073	-0.0462	0.0165	0.9585
10.0175	-3.5763	285.3914	11.3914	-108.502	-13.5694	299.0491	27.4303	607.8099	-55.442	229.1165	33.7726	494.8529	-0.0592	0.0182	-0.0073	-0.0462	0.0165	0.9585
10.03	-11.5495	318.9625	17.1622	-121.1006	-22.5095	333.4246	26.5218	576.2042	-51.7674	216.9578	31.2245	468.9869	-0.0592	0.0182	-0.0073	-0.0462	0.0165	0.9585
10.0425	-18.3637	347.8379	22.9187	-131.9112	-30.9014	362.2448	25.8458	541.1569	-47.5771	203.5663	28.2077	440.3492	-0.0592	0.0182	-0.0073	-0.0462	0.0165	0.9585
10.055	-23.8878	374.8836	27.981	-142.0646	-38.0026	388.4985	25.543	503.3454	-43.2067	189.2043	24.9183	409.3932	-0.0592	0.0182	-0.0073	-0.0462	0.0165	0.9585
10.0675	-28.1673	402.3773	32.1106	-152.4466	-43.5924	414.6085	25.5303	463.1211	-38.8038	174.007	21.4932	376.3853	-0.0592	0.0182	-0.0073	-0.0462	0.0165	0.9585
